<?xml version="1.0" encoding="UTF-8"?><svg id="Layer_2" xmlns="http://www.w3.org/2000/svg" viewBox="0 0 473.57 319.67"><defs><style>.cls-1{fill:#fff;}.cls-2{fill:#00aeef;}.cls-3{fill:#24252a;}.cls-4{fill:#fcfbfc;}</style></defs><g id="Layer_1-2"><g><g><path class="cls-2" d="M411.36,319.67s-23.03-1.03-38.71-18.82c-11.65-13.19-32.67-43.69-57.18-69.66,16.51-8.77,36.93-19.21,61.95-31.51,31.72-15.62,55.67-41.7,67.47-73.45,.83-2.19,1.57-4.39,2.22-6.58,10.47,46.12,24.93,122.6,24.93,122.6,0,0,16.75,76.39-60.68,77.42Z"/><path class="cls-2" d="M158.13,231.19c-24.54,25.97-45.56,56.47-57.21,69.66-15.68,17.79-38.71,18.82-38.71,18.82C-15.22,318.64,1.53,242.25,1.53,242.25c0,0,14.46-76.51,24.93-122.63,.65,2.19,1.39,4.39,2.22,6.61,11.8,31.75,35.75,57.83,67.47,73.45,25.02,12.3,45.47,22.77,61.98,31.51Z"/></g><path class="cls-1" d="M425.44,119c-10.13,27.27-31.06,49.2-57.18,62.07-42.74,21.01-126.3,63.4-131.46,75.82-5.19-12.42-88.75-54.81-131.49-75.82-26.12-12.87-47.05-34.8-57.18-62.07-10.82-29.14-10.82-66.46,32.43-99.25,86.49-65.54,156.24,53.03,156.24,53.03,0,0,69.75-118.57,156.21-53.03,43.25,32.79,43.25,70.11,32.43,99.25Z"/><path class="cls-3" d="M425.44,119c-10.13,27.27-31.06,49.2-57.18,62.07-42.74,21.01-126.3,63.4-131.46,75.82-5.19-12.42-88.75-54.81-131.49-75.82-26.12-12.87-47.05-34.8-57.18-62.07-10.82-29.14-10.82-66.46,32.43-99.25,86.49-65.54,156.24,53.03,156.24,53.03,0,0,69.75-118.57,156.21-53.03,43.25,32.79,43.25,70.11,32.43,99.25Z"/><g><g><circle class="cls-1" cx="335.03" cy="66.5" r="16.25"/><circle class="cls-1" cx="335.03" cy="123.34" r="16.25"/></g><g><circle class="cls-2" cx="363.45" cy="94.92" r="16.25"/><circle class="cls-2" cx="306.6" cy="94.92" r="16.25"/></g></g><g><rect class="cls-4" x="125.19" y="44.53" width="28.25" height="104.62"/><rect class="cls-4" x="87" y="82.71" width="104.62" height="28.25"/></g></g></g></svg>